HIERARCHY
ROOT Hips
{
	OFFSET 0.00000 0.00000 0.00000
	CHANNELS 6 Xposition Yposition Zposition Zrotation Yrotation Xrotation 
	JOINT LHipJoint
	{
		OFFSET 0 0 0
		CHANNELS 3 Zrotation Yrotation Xrotation
		JOINT LeftHip
		{
			OFFSET 1.34019 -1.87553 0.90315
			CHANNELS 3 Zrotation Yrotation Xrotation
			JOINT LeftKnee
			{
				OFFSET 2.55316 -7.01474 0.00000
				CHANNELS 3 Zrotation Yrotation Xrotation
				JOINT LeftAnkle
				{
					OFFSET 2.64657 -7.27139 0.00000
					CHANNELS 3 Zrotation Yrotation Xrotation
					JOINT LeftToe
					{
						OFFSET 0.24207 -0.66507 2.14489
						CHANNELS 3 Zrotation Yrotation Xrotation
						End Site
						{
							OFFSET 0.00000 -0.00000 1.12451
						}
					}
				}
			}
		}
	}
	JOINT RHipJoint
	{
		OFFSET 0 0 0
		CHANNELS 3 Zrotation Yrotation Xrotation
		JOINT RightHip
		{
			OFFSET -1.28320 -1.87553 0.90315
			CHANNELS 3 Zrotation Yrotation Xrotation
			JOINT RightKnee
			{
				OFFSET -2.60484 -7.15674 0.00000
				CHANNELS 3 Zrotation Yrotation Xrotation
				JOINT RightAnkle
				{
					OFFSET -2.60296 -7.15159 0.00000
					CHANNELS 3 Zrotation Yrotation Xrotation
					JOINT RightToe
					{
						OFFSET -0.31082 -0.85398 2.28998
						CHANNELS 3 Zrotation Yrotation Xrotation
						End Site
						{
							OFFSET -0.00000 -0.00000 1.21611
						}
					}
				}
			}
		}
	}
	JOINT lowerback
	{
		OFFSET 0 0 0
		CHANNELS 3 Zrotation Yrotation Xrotation
		JOINT Chest
		{
			OFFSET -0.00160 2.05581 -0.15156
			CHANNELS 3 Zrotation Yrotation Xrotation
			JOINT Chest2
			{
				OFFSET 0.04594 2.06326 -0.01617
				CHANNELS 3 Zrotation Yrotation Xrotation
				JOINT lowerneck
				{
					OFFSET 0 0 0
					CHANNELS 3 Zrotation Yrotation Xrotation
					JOINT Neck
					{
						OFFSET 0.03753 1.73883 0.26751
						CHANNELS 3 Zrotation Yrotation Xrotation
						JOINT Head
						{
							OFFSET -0.09795 1.76129 -0.31794
							CHANNELS 3 Zrotation Yrotation Xrotation
							End Site
							{
								OFFSET -0.03611 1.79987 -0.13846
							}
						}
					}
				}
				JOINT LeftCollar
				{
					OFFSET 0 0 0
					CHANNELS 3 Zrotation Yrotation Xrotation
					JOINT LeftShoulder
					{
						OFFSET 3.30667 1.29205 -0.22445
CHANNELS 3 Zrotation Xrotation Yrotation
						JOINT LeftElbow
						{
OFFSET 0 -4.927850 -0.000000
CHANNELS 3 Zrotation Xrotation Yrotation
							JOINT LeftWrist
							{
OFFSET 0 -3.440520 0.000000
CHANNELS 3 Zrotation Xrotation Yrotation
								JOINT lhand
								{
									OFFSET 0 0 0
CHANNELS 3 Zrotation Xrotation Yrotation
									JOINT LFingers
									{
OFFSET 0 -0.654330 0.000000
CHANNELS 3 Zrotation Xrotation Yrotation
										End Site
										{
OFFSET 0 -0.527530 0.000000
										}
									}
								}
								JOINT LThumb
								{
OFFSET 0 0.000000 0.000000
CHANNELS 3 Zrotation Xrotation Yrotation
									End Site
									{
OFFSET 0 -0.535590 0.535590
									}
								}
							}
						}
					}
				}
				JOINT RightCollar
				{
					OFFSET 0 0 0
					CHANNELS 3 Zrotation Yrotation Xrotation
					JOINT RightShoulder
					{
						OFFSET -3.20032 1.49783 -0.27688
CHANNELS 3 Zrotation Xrotation Yrotation
						JOINT RightElbow
						{
OFFSET 0 -5.091810 -0.000000
CHANNELS 3 Zrotation Xrotation Yrotation
							JOINT RightWrist
							{
OFFSET 0 -3.498650 -0.000000
CHANNELS 3 Zrotation Xrotation Yrotation
								JOINT rhand
								{
									OFFSET 0 0 0
CHANNELS 3 Zrotation Xrotation Yrotation
									JOINT RFingers
									{
OFFSET 0 -0.666410 0.000000
CHANNELS 3 Zrotation Xrotation Yrotation
										End Site
										{
OFFSET 0 -0.537280 0.000000
										}
									}
								}
								JOINT RThumb
								{
OFFSET 0 0.000000 0.000000
CHANNELS 3 Zrotation Xrotation Yrotation
									End Site
									{
OFFSET 0 -0.545480 0.545480
									}
								}
							}
						}
					}
				}
			}
		}
	}
}
MOTION
Frames: 11
Frame Time: 0.008333333333333333
1.758109 17.926029 37.505685 177.419038 -6.093279 543.085910 0.000000 0.000000 0.000000 -27.571790 -5.079866 0.918870 0.739142 5.492075 15.317525 0.308205 6.524750 -14.875641 0.026853 -1.057497 -2.906957 0.000000 0.000000 0.000000 12.974147 4.358997 -32.074473 -9.018680 -16.818719 56.153182 -0.904571 -12.494971 -26.457269 -0.292106 3.475201 -9.604782 0.066821 -5.745716 7.778938 1.323978 -7.605407 -1.238321 2.269944 -3.741800 -5.457436 4.865880 6.588487 -20.621163 -6.701614 10.159994 23.137715 -1.572831 4.401664 11.579683 0.000000 0.000000 0.000000 0.795703 10.647347 -18.681124 18.480730 -28.768322 4.778315 11.029292 -7.685283 -0.407497 0.000000 0.000000 0.000000 -7.125000 0.000000 0.000000 -12.227812 30.268836 -4.489030 0.000000 0.000000 0.000000 -7.021738 6.582765 26.968946 -15.523188 -24.869880 -3.442969 -16.915087 -5.741625 3.091594 0.000000 0.000000 0.000000 7.125000 0.000000 0.000000 7.878495 33.137356 2.309102
1.737406 17.950174 37.117627 177.865608 -5.581456 542.106648 0.000000 0.000000 0.000000 -27.048111 -2.508254 5.883759 0.284686 3.430638 9.480240 0.186067 6.606568 -13.111963 0.044104 -1.355103 -3.726353 0.000000 0.000000 0.000000 14.071361 6.074559 -31.709006 -5.184152 -13.587648 41.611103 -1.283942 -12.074082 -28.828866 -0.399204 4.056319 -11.235330 -0.055420 -5.707610 9.153314 1.488178 -7.563421 -0.905582 2.635379 -3.711329 -5.844531 4.967485 6.702503 -20.502509 -6.703209 10.252429 22.918167 -1.579339 4.452540 11.485412 0.000000 0.000000 0.000000 0.943602 11.196874 -19.093110 18.549824 -28.855434 4.811612 10.995078 -7.601281 -0.110680 0.000000 0.000000 0.000000 -7.125000 0.000000 0.000000 -12.216983 29.972710 -4.573382 0.000000 0.000000 0.000000 -6.972023 7.209186 27.002546 -15.417047 -24.723861 -3.398453 -16.637007 -5.629634 3.003360 0.000000 0.000000 0.000000 7.125000 0.000000 0.000000 8.093495 33.037231 2.392872
1.783386 17.949021 36.590640 178.079751 -3.643184 542.042492 0.000000 0.000000 0.000000 -26.255108 1.475898 11.847901 0.000000 0.000000 0.000000 -0.041524 7.308697 -9.419437 0.100191 -2.040767 -5.618283 0.000000 0.000000 0.000000 14.571832 9.567568 -30.775480 -3.098207 -10.852055 31.782907 -1.072292 -11.346489 -26.691173 -0.455693 4.330518 -12.008560 -1.333233 -4.662724 9.647312 1.839020 -6.301330 -0.925008 3.581761 -3.041432 -6.011986 4.534089 6.013169 -20.549197 -6.461444 9.388118 23.211435 -1.566422 4.056260 11.509659 0.000000 0.000000 0.000000 1.095598 11.278971 -19.552136 18.284906 -28.520429 4.684493 11.049265 -7.301033 -0.382391 0.000000 0.000000 0.000000 -7.125000 0.000000 0.000000 -12.209039 30.244181 -4.489221 0.000000 0.000000 0.000000 -6.822993 7.946155 25.377669 -15.444985 -24.762320 -3.410138 -17.331974 -6.116677 3.819969 0.000000 0.000000 0.000000 7.125000 0.000000 0.000000 7.619656 33.906658 2.089056
1.816352 17.926837 35.944258 177.927891 -3.633422 541.839907 0.000000 0.000000 0.000000 -25.957375 2.145482 14.322664 0.000000 0.000000 0.000000 -0.005646 6.331176 -8.881972 0.324025 -3.657987 -10.116447 0.000000 0.000000 0.000000 14.826793 9.711841 -30.135909 -2.834452 -10.422073 30.354545 -0.811759 -11.359620 -24.658183 -0.432448 4.220076 -11.696576 -1.143538 -4.994036 10.322743 1.704884 -6.734424 -0.828233 3.462511 -3.255959 -6.300656 4.882842 6.473145 -20.876047 -6.748783 10.001937 23.292165 -1.613410 4.312714 11.681280 0.000000 0.000000 0.000000 0.914803 11.230869 -18.324673 18.278877 -28.512742 4.681619 11.034129 -7.428196 -0.745583 0.000000 0.000000 0.000000 -7.125000 0.000000 0.000000 -12.267460 30.605473 -4.403063 0.000000 0.000000 0.000000 -6.933082 7.731414 25.801710 -15.285652 -24.542546 -3.343734 -17.525097 -5.692458 4.342274 0.000000 0.000000 0.000000 7.125000 0.000000 0.000000 7.520453 34.456504 1.960235
1.923458 17.941782 35.131203 177.814940 -4.115813 542.594167 0.000000 0.000000 0.000000 -25.405951 1.989144 16.394296 0.000000 0.000000 0.000000 -0.080441 6.248068 -6.233333 0.737383 -5.485230 -15.298132 0.000000 0.000000 0.000000 15.255418 10.236590 -28.003359 -2.818800 -10.395783 30.268107 -0.643524 -10.709914 -22.585273 -0.389417 4.007110 -11.096567 -0.649520 -5.662446 9.769197 1.527611 -7.562629 -1.087001 3.083542 -3.676641 -6.301318 5.489493 7.283404 -20.828443 -7.016559 11.026008 23.208525 -1.629948 4.790834 11.765966 0.000000 0.000000 0.000000 0.920532 11.483850 -17.342861 18.240098 -28.463516 4.663093 11.241769 -6.999363 0.007401 0.000000 0.000000 0.000000 -7.125000 0.000000 0.000000 -12.011296 29.858911 -4.526583 0.000000 0.000000 0.000000 -6.930327 7.702259 26.538472 -15.170903 -24.383646 -3.296154 -17.539895 -5.885225 3.285670 0.000000 0.000000 0.000000 7.125000 0.000000 0.000000 7.393787 33.359195 2.124963
2.073501 18.043724 34.141576 178.301937 -3.596218 543.615980 0.000000 0.000000 0.000000 -24.378140 0.587005 12.201414 0.412284 4.117839 11.408892 -0.033933 5.283602 -6.343340 1.418426 -7.531056 -21.298972 0.000000 0.000000 0.000000 16.905382 10.285604 -25.584917 -2.734341 -10.252053 29.796820 -0.533285 -9.394491 -20.259686 -0.477027 4.429286 -12.287569 -0.300701 -5.518322 8.725324 1.802712 -7.315729 -1.554080 3.059627 -3.564182 -6.224769 5.787535 7.592507 -20.691419 -7.226015 11.466899 23.277033 -1.677758 4.997453 11.832675 0.000000 0.000000 0.000000 0.400009 11.734575 -15.953216 18.479707 -28.767053 4.777852 11.098713 -7.477325 -0.638495 0.000000 0.000000 0.000000 -7.125000 0.000000 0.000000 -12.203243 30.500123 -4.410533 0.000000 0.000000 0.000000 -7.214994 8.069839 26.488201 -14.842281 -23.925959 -3.161702 -17.198707 -5.969646 1.792563 0.000000 0.000000 0.000000 7.125000 0.000000 0.000000 7.521426 31.799042 2.447508
2.243011 18.128459 32.986259 177.910613 -2.961784 543.892040 0.000000 0.000000 0.000000 -23.618483 0.041011 6.374990 2.011374 8.889671 25.450775 -0.014698 2.539327 0.515827 2.635508 -10.080266 -29.237105 0.000000 0.000000 0.000000 17.964144 9.498453 -21.350382 -2.499150 -9.836354 28.448462 -0.403414 -8.789122 -18.265421 -0.508505 4.570863 -12.688512 -0.312203 -5.479818 7.715033 1.434495 -7.279060 -1.765625 2.581399 -3.555162 -5.924313 5.968867 7.894780 -20.792359 -7.146512 11.903332 23.752097 -1.589835 5.215820 12.074884 0.000000 0.000000 0.000000 0.702678 12.582974 -15.561168 18.835673 -29.213965 4.950382 10.931464 -7.805546 -0.493765 0.000000 0.000000 0.000000 -7.125000 0.000000 0.000000 -12.314875 30.352863 -4.497019 0.000000 0.000000 0.000000 -7.223054 8.376451 27.996575 -14.892497 -23.996176 -3.182077 -17.256375 -6.345071 2.114513 0.000000 0.000000 0.000000 7.125000 0.000000 0.000000 7.505521 32.134513 2.381205
2.385649 18.171025 31.852446 180.814795 -2.975298 543.952778 0.000000 0.000000 0.000000 -17.423910 -1.571697 -7.416898 6.786726 15.144683 48.054063 0.991126 -2.329639 19.768004 1.118306 -6.701188 -18.839354 0.000000 0.000000 0.000000 22.876992 8.346367 -16.097761 -1.998800 -8.863283 25.368820 -0.208105 -8.669564 -15.687647 -0.112377 2.157392 -5.940967 0.368683 -3.661388 6.470767 2.924080 -4.792895 -1.902838 3.363153 -2.366496 -5.383040 4.379447 5.101523 -19.202669 -6.643749 8.382687 23.466438 -1.799352 3.643281 11.282526 0.000000 0.000000 0.000000 1.139643 12.318878 -19.678822 18.726009 -29.076822 4.896983 11.162855 -7.226337 -0.169354 0.000000 0.000000 0.000000 -7.125000 0.000000 0.000000 -12.094191 30.033897 -4.507413 0.000000 0.000000 0.000000 -7.846596 9.207449 25.174051 -15.264748 -24.513590 -3.335087 -16.916318 -6.209350 3.141775 0.000000 0.000000 0.000000 7.125000 0.000000 0.000000 7.882939 33.189321 2.300284
2.455611 18.153656 30.773953 183.860970 -2.833481 543.006805 0.000000 0.000000 0.000000 -12.183906 -4.992278 -20.067672 11.887332 18.342452 65.631000 0.116803 0.335971 6.279460 0.581492 -4.882325 -13.573302 0.000000 0.000000 0.000000 27.658192 6.594493 -9.836495 -1.542694 -7.840325 22.230197 -0.047511 -9.815745 -14.745183 -0.001255 -0.223087 0.612923 1.827414 -2.425245 5.783656 4.332374 -3.108508 -1.851025 3.804284 -1.616910 -5.024057 2.389607 2.988108 -15.466279 -5.933449 5.761672 21.684045 -1.664987 2.502023 9.665525 0.000000 0.000000 0.000000 0.769954 12.472472 -21.917003 18.948598 -29.354734 5.005649 11.439578 -7.287662 -0.088435 0.000000 0.000000 0.000000 -7.125000 0.000000 0.000000 -11.869568 29.957735 -4.442441 0.000000 0.000000 0.000000 -9.101697 9.838540 23.848864 -15.861515 -25.332542 -3.586559 -17.330851 -7.026010 3.430718 0.000000 0.000000 0.000000 7.125000 0.000000 0.000000 7.578293 33.502718 2.152179
2.453393 18.086496 29.671177 185.400750 -2.405698 541.954761 0.000000 0.000000 0.000000 -9.941013 -8.148497 -27.101558 10.691049 17.779863 61.773131 0.333365 3.946320 -13.078207 0.804013 -5.722711 -15.981979 0.000000 0.000000 0.000000 30.180819 4.604499 -3.967135 -1.290499 -7.197997 20.303381 -0.093733 -10.247897 -15.993687 -0.000149 -0.069978 0.192282 2.153870 -0.800246 6.294009 4.978680 -0.933143 -1.577033 4.095911 -0.568320 -5.129152 3.577239 1.832172 -15.302331 -6.956421 4.125055 21.755908 -2.438146 1.745829 9.624391 0.000000 0.000000 0.000000 1.119553 11.856796 -25.588335 19.094198 -29.535531 5.077165 11.411622 -7.344146 0.188760 0.000000 0.000000 0.000000 -7.125000 0.000000 0.000000 -11.857942 29.680508 -4.518162 0.000000 0.000000 0.000000 -9.192439 10.147075 20.539984 -16.613974 -26.346082 -3.914527 -17.302290 -7.916487 3.400246 0.000000 0.000000 0.000000 7.125000 0.000000 0.000000 7.598132 33.470052 2.164020
2.406119 18.089828 28.534608 185.748591 -2.581508 542.061848 0.000000 0.000000 0.000000 -9.902181 -9.741575 -29.535226 5.454298 13.872982 42.740690 0.709762 6.454547 -19.547877 0.823570 -5.790202 -16.176869 0.000000 0.000000 0.000000 31.080984 2.908348 2.502377 -0.717869 -5.413079 15.090945 0.105405 -11.916759 -15.434119 -0.018734 0.880736 -2.420818 2.845218 -1.014650 5.803141 5.072860 -1.207662 -1.721570 3.822746 -0.735651 -4.998125 3.241433 2.055638 -14.147210 -7.019506 4.507844 20.935925 -2.352443 1.928255 9.140692 0.000000 0.000000 0.000000 0.487571 12.480034 -24.356671 19.444665 -29.967460 5.251105 11.673742 -7.273575 0.179789 0.000000 0.000000 0.000000 -7.125000 0.000000 0.000000 -11.656241 29.693146 -4.434731 0.000000 0.000000 0.000000 -9.823495 10.267173 22.260002 -16.978512 -26.829405 -4.077667 -17.348124 -8.549802 3.531844 0.000000 0.000000 0.000000 7.125000 0.000000 0.000000 7.575056 33.608213 2.131776
